<svg xmlns="http://www.w3.org/2000/svg" version="1.1" xmlns:xlink="http://www.w3.org/1999/xlink" xmlns:svgjs="http://svgjs.dev/svgjs" width="1920" height="1080" preserveAspectRatio="none" viewBox="0 0 1920 1080"><g mask="url(&quot;#SvgjsMask1488&quot;)" fill="none"><rect width="1920" height="1080" x="0" y="0" fill="url(&quot;#SvgjsLinearGradient1489&quot;)"></rect><path d="M800.95 251.91 a299.27 299.27 0 1 0 598.54 0 a299.27 299.27 0 1 0 -598.54 0z" fill="rgba(79, 147, 255, 0.14)" class="triangle-float3"></path><path d="M1605.804,946.518C1666.885,944.069,1722.265,914.179,1754.83,862.445C1789.881,806.763,1804.636,737.524,1774.024,679.283C1741.464,617.336,1675.778,580.033,1605.804,578.919C1533.829,577.773,1464.061,611.45,1428.044,673.775C1392.004,736.14,1395.208,814.941,1434.538,875.286C1470.722,930.804,1539.588,949.173,1605.804,946.518" fill="rgba(79, 147, 255, 0.14)" class="triangle-float1"></path><path d="M297.976,1073.238C349.391,1068.755,376.053,1016.195,398.972,969.953C418.581,930.39,428.785,886.908,410.171,846.867C388.111,799.414,350.226,755.587,297.976,752.701C241.628,749.589,190.188,784.246,162.045,833.162C133.976,881.948,133.312,941.722,161.044,990.7C189.188,1040.406,241.071,1078.2,297.976,1073.238" fill="rgba(79, 147, 255, 0.14)" class="triangle-float3"></path><path d="M484.61342601693866 412.8512898795432L222.72587546122145 503.02640511266986 312.90099069434814 764.9139556683871 574.7885412500654 674.7388404352604z" fill="rgba(79, 147, 255, 0.14)" class="triangle-float3"></path><path d="M125.89633487805392 990.0372554448189L206.66471228953986 808.6285096100466-55.512410956718384 909.268878033333z" fill="rgba(79, 147, 255, 0.14)" class="triangle-float3"></path><path d="M2009.696713176609 180.9231084338302L1825.3723137897643 138.3684677670836 1782.8176731230178 322.6928671539281 1967.1420725098624 365.24750782067474z" fill="rgba(79, 147, 255, 0.14)" class="triangle-float1"></path><path d="M394.59904542107796 1120.5402192986353L660.4199583092272 1120.5402192986353 394.5990454210779 854.7193064104861z" fill="rgba(79, 147, 255, 0.14)" class="triangle-float2"></path><path d="M1641.84 276.98 a268.17 268.17 0 1 0 536.34 0 a268.17 268.17 0 1 0 -536.34 0z" fill="rgba(79, 147, 255, 0.14)" class="triangle-float3"></path><path d="M457.39 787.33 a295.07 295.07 0 1 0 590.14 0 a295.07 295.07 0 1 0 -590.14 0z" fill="rgba(79, 147, 255, 0.14)" class="triangle-float3"></path><path d="M234.59 638.64 a275.87 275.87 0 1 0 551.74 0 a275.87 275.87 0 1 0 -551.74 0z" fill="rgba(79, 147, 255, 0.14)" class="triangle-float2"></path><path d="M353.416,755.764C398.618,751.992,428.806,714.109,451.005,674.553C472.582,636.107,487.426,591.661,467.616,552.276C445.965,509.231,401.553,482.647,353.416,480.533C301.206,478.24,247.72,496.862,220.413,541.42C192.002,587.781,194.176,647.392,222.845,693.594C250.086,737.495,301.929,760.061,353.416,755.764" fill="rgba(79, 147, 255, 0.14)" class="triangle-float3"></path></g><defs><mask id="SvgjsMask1488"><rect width="1920" height="1080" fill="#ffffff"></rect></mask><linearGradient x1="10.94%" y1="-19.44%" x2="89.06%" y2="119.44%" gradientUnits="userSpaceOnUse" id="SvgjsLinearGradient1489"><stop stop-color="#0e2a47" offset="0"></stop><stop stop-color="rgba(20, 20, 20, 1)" offset="0.62"></stop><stop stop-color="rgba(20, 20, 20, 1)" offset="0.82"></stop><stop stop-color="rgba(20, 20, 20, 1)" offset="1"></stop><stop stop-color="rgba(20, 20, 20, 1)" offset="1"></stop></linearGradient><style>
                @keyframes float1 {
                    0%{transform: translate(0, 0)}
                    50%{transform: translate(-10px, 0)}
                    100%{transform: translate(0, 0)}
                }

                .triangle-float1 {
                    animation: float1 5s infinite;
                }

                @keyframes float2 {
                    0%{transform: translate(0, 0)}
                    50%{transform: translate(-5px, -5px)}
                    100%{transform: translate(0, 0)}
                }

                .triangle-float2 {
                    animation: float2 4s infinite;
                }

                @keyframes float3 {
                    0%{transform: translate(0, 0)}
                    50%{transform: translate(0, -10px)}
                    100%{transform: translate(0, 0)}
                }

                .triangle-float3 {
                    animation: float3 6s infinite;
                }
            </style></defs></svg>